<svg width="305" height="88" viewBox="0 0 305 88" fill="none" xmlns="http://www.w3.org/2000/svg">
<mask id="mask0" mask-type="alpha" maskUnits="userSpaceOnUse" x="60" y="37" width="24" height="24">
<path d="M60 37.1145H83.8953V60.4139H60V37.1145Z" fill="white"/>
</mask>
<g mask="url(#mask0)">
<path fill-rule="evenodd" clip-rule="evenodd" d="M74.0113 60.4139C81.7477 60.4139 83.4732 55.5118 83.8083 53.9246C84.0854 52.6175 83.3922 52.6913 83.2932 53.6654C82.9701 56.8367 79.542 59.7509 75.9759 59.7509C74.9055 59.6632 74.5624 59.6751 73.4191 58.9374C72.6809 58.4618 71.8736 57.1348 71.4245 55.117C70.7883 52.2586 70.8773 46.5728 71.2554 44.0395C71.6855 41.1493 72.4818 40.1184 73.227 39.4624C74.3634 38.4624 75.6728 37.9669 77.2473 37.9669C80.7774 37.9669 83.9394 40.5042 83.3282 43.2988C83.2442 43.6846 83.1171 43.9089 83.0971 44.0864C83.5453 41.8292 81.6767 39.1274 78.6117 39.1274C76.1329 39.1274 73.4651 39.8951 73.4651 43.5051C73.4651 45.0963 74.4524 47.4532 78.6127 47.3026C80.2732 47.2428 83.8954 46.6646 83.8954 43.0715C83.8954 39.932 81.3526 37.1145 73.7252 37.1145C64.9844 37.1145 59.9999 41.5261 59.9999 48.5638C59.9999 55.8697 65.0375 60.4139 74.0113 60.4139Z" fill="#231F20"/>
</g>
<path fill-rule="evenodd" clip-rule="evenodd" d="M125.903 60.4139C133.639 60.4139 135.365 55.5118 135.7 53.9246C135.977 52.6175 135.284 52.6913 135.185 53.6654C134.862 56.8367 131.434 59.7509 127.869 59.7509C126.797 59.6632 126.454 59.6751 125.311 58.9374C124.573 58.4618 123.765 57.1348 123.316 55.117C122.68 52.2586 122.769 46.5728 123.147 44.0395C123.578 41.1493 124.374 40.1184 125.119 39.4624C126.255 38.4624 127.565 37.9669 129.139 37.9669C132.669 37.9669 135.831 40.5042 135.22 43.2988C135.136 43.6846 135.009 43.9089 134.989 44.0864C135.437 41.8292 133.568 39.1274 130.504 39.1274C128.025 39.1274 125.357 39.8951 125.357 43.5051C125.357 45.0963 126.345 47.4532 130.504 47.3026C132.166 47.2428 135.787 46.6646 135.787 43.0715C135.787 39.932 133.244 37.1145 125.617 37.1145C116.876 37.1145 111.892 41.5261 111.892 48.5638C111.892 55.8697 116.929 60.4139 125.903 60.4139Z" fill="#231F20"/>
<mask id="mask1" mask-type="alpha" maskUnits="userSpaceOnUse" x="165" y="37" width="28" height="24">
<path d="M165.047 37.1927H192.092V60.5493H165.047V37.1927Z" fill="white"/>
</mask>
<g mask="url(#mask1)">
<path fill-rule="evenodd" clip-rule="evenodd" d="M178.945 46.4753C178.541 46.9857 177.994 47.4762 177.632 47.873C177.053 48.5081 176.727 49.0455 176.552 51.0973C176.425 52.6017 176.415 55.0832 176.525 56.8359C176.649 58.7979 178.942 59.2725 178.942 55.6864L178.945 46.4753ZM182.978 60.3163C181.296 60.0132 179.91 59.2007 179.104 57.5208C177.755 60.759 172.463 60.9554 168.747 59.9893C164.405 58.8617 164.734 53.9526 165.537 51.9287C166.327 49.9338 168.056 49.3645 169.644 48.9757C171.987 48.4024 174.725 48.864 176.788 47.7394C180.746 45.582 179.398 40.29 176.413 38.989C175.7 38.6779 174.681 38.1046 173.083 38.1046C169.516 38.1046 166.462 40.1823 166.713 43.1912C166.75 43.6209 166.964 43.8732 166.985 44.0506C166.572 41.2431 168.821 39.959 169.923 39.623C171.025 39.287 171.419 39.2771 172.249 39.2811C173.469 39.287 174.421 39.6739 175.149 40.0886C175.877 40.5044 176.857 41.8632 176.857 43.2261C176.857 45.2859 176.021 47.5101 171.736 47.5101C170.342 47.5101 166.252 46.88 166.252 43.1733C166.252 40.0328 168.402 36.9232 178.419 37.2113C190.606 37.5623 189.776 42.4036 189.776 43.2889V57.2666C189.765 58.3413 190.658 58.8548 191.12 57.9535C191.404 57.3992 191.72 55.465 191.722 53.811C191.725 52.8609 192.159 52.9148 192.083 53.8439C191.917 55.8618 192.11 58.8059 189.893 59.7899C187.593 60.8128 184.538 60.5975 182.978 60.3163Z" fill="#231F20"/>
</g>
<mask id="mask2" mask-type="alpha" maskUnits="userSpaceOnUse" x="84" y="37" width="28" height="24">
<path d="M84.2904 37.1927H111.334V60.5493H84.2904V37.1927Z" fill="white"/>
</mask>
<g mask="url(#mask2)">
<path fill-rule="evenodd" clip-rule="evenodd" d="M98.1874 46.4753C97.7833 46.9857 97.2361 47.4762 96.875 47.873C96.2959 48.5081 95.9698 49.0455 95.7957 51.0973C95.6677 52.6017 95.6577 55.0832 95.7687 56.8359C95.8927 58.7979 98.1844 59.2725 98.1844 55.6864L98.1874 46.4753ZM102.221 60.3163C100.539 60.0132 99.1527 59.2007 98.3475 57.5208C96.9971 60.759 91.7054 60.9554 87.9883 59.9893C83.6479 58.8617 83.978 53.9526 84.7792 51.9287C85.5695 49.9338 87.3 49.3645 88.8865 48.9757C91.2293 48.4024 93.9691 48.864 96.0308 47.7394C99.989 45.582 98.6416 40.29 95.6557 38.989C94.9424 38.6779 93.9241 38.1046 92.3256 38.1046C88.7585 38.1046 85.7045 40.1823 85.9556 43.1912C85.9916 43.6209 86.2067 43.8732 86.2277 44.0506C85.8146 41.2431 88.0633 39.959 89.1656 39.623C90.268 39.287 90.6631 39.2771 91.4913 39.2811C92.7117 39.287 93.664 39.6739 94.3913 40.0886C95.1195 40.5044 96.0998 41.8632 96.0998 43.2261C96.0998 45.2859 95.2635 47.5101 90.9772 47.5101C89.5848 47.5101 85.4945 46.88 85.4945 43.1733C85.4945 40.0328 87.6441 36.9232 97.6623 37.2113C109.849 37.5623 109.02 42.4036 109.02 43.2889V57.2666C109.009 58.3413 109.901 58.8548 110.362 57.9535C110.646 57.3992 110.962 55.465 110.965 53.811C110.967 52.8609 111.402 52.9148 111.326 53.8439C111.16 55.8618 111.354 58.8059 109.137 59.7899C106.835 60.8128 103.78 60.5975 102.221 60.3163Z" fill="#231F20"/>
</g>
<path fill-rule="evenodd" clip-rule="evenodd" d="M163.394 57.8036C162.927 59.1296 161.914 58.6361 161.914 57.4367L161.927 41.2548C161.927 38.7314 159.67 37.3686 155.193 37.3686C150.206 37.3686 148.751 40.1023 148.589 40.4243V26.4636C148.589 26.0818 148.363 25.988 148.138 26.015L136.064 26C135.498 26.013 135.576 26.3868 136.008 26.3868C136.439 26.3868 137.49 26.4397 137.758 26.4845C138.027 26.5304 138.123 26.6769 138.124 26.999C138.124 28.8514 138.122 59.0927 138.122 59.0927C138.121 59.4157 138.027 59.5593 137.758 59.6042C137.49 59.65 136.439 59.7019 136.008 59.7019C135.576 59.7019 135.478 60.0907 136.044 60.1047H150.637C151.202 60.0907 151.146 59.7019 150.715 59.7019C150.284 59.7019 149.233 59.65 148.964 59.6042C148.696 59.5593 148.601 59.4157 148.6 59.0927C148.6 59.0927 148.597 44.6246 148.597 42.7712C148.597 40.204 151.176 38.5699 151.412 41.2837V55.9542C151.412 58.341 152.487 59.9661 155.428 60.3619C157.095 60.5872 160.037 60.5493 162.029 59.9362C164.185 59.2722 164.084 56.1048 164.25 54.0869C164.327 53.1587 163.891 53.1049 163.889 54.055C163.886 55.709 163.735 56.8366 163.394 57.8036Z" fill="#231F20"/>
<mask id="mask3" mask-type="alpha" maskUnits="userSpaceOnUse" x="239" y="26" width="16" height="35">
<path d="M239.602 26H255V60.1052H239.602V26Z" fill="white"/>
</mask>
<g mask="url(#mask3)">
<path fill-rule="evenodd" clip-rule="evenodd" d="M252.55 59.0934C252.552 59.4154 252.646 59.5589 252.914 59.6048C253.183 59.6497 254.234 59.7025 254.666 59.7025C255.097 59.7025 255.154 60.0913 254.588 60.1053H239.994C239.429 60.0913 239.526 59.7025 239.957 59.7025C240.389 59.7025 241.44 59.6497 241.709 59.6048C241.978 59.5589 242.071 59.4154 242.072 59.0934C242.072 59.0934 242.075 28.852 242.075 26.9996C242.074 26.6766 241.978 26.53 241.709 26.4852C241.44 26.4403 240.389 26.3875 239.957 26.3875C239.526 26.3875 239.448 26.0136 240.014 25.9996L252.089 26.0146C252.314 25.9887 252.539 26.0814 252.539 26.4642L252.55 59.0934Z" fill="#231F20"/>
</g>
<path fill-rule="evenodd" clip-rule="evenodd" d="M207.638 37.8372C205.692 38.7136 204.991 39.8511 204.872 40.0744L204.835 38.1403C204.835 37.7575 204.61 37.6647 204.384 37.6917L192.31 37.6757C191.743 37.6897 191.822 38.0635 192.254 38.0635C192.685 38.0635 193.736 38.1164 194.004 38.1612C194.273 38.2071 194.368 38.3536 194.369 38.6757C194.369 40.5281 194.368 59.0928 194.368 59.0928C194.367 59.4158 194.273 59.5594 194.004 59.6043C193.736 59.6491 192.685 59.702 192.254 59.702C191.822 59.702 191.725 60.0908 192.289 60.1047H206.883C207.45 60.0908 207.393 59.702 206.96 59.702C206.53 59.702 205.479 59.6491 205.21 59.6043C204.942 59.5594 204.847 59.4158 204.847 59.0928C204.847 59.0928 204.838 44.7403 204.838 42.8869C204.838 40.3257 206.748 38.7385 207.79 38.245C209.499 37.4354 212.049 37.6877 213.267 38.3018C214.46 38.904 215.616 40.3965 215.616 42.0465C215.616 42.2528 215.619 42.5031 215.565 42.6367C215.183 40.3516 213.85 38.7514 210.965 38.7514C206.625 38.7514 206.049 41.4204 206.049 42.7842C206.049 44.7224 207.29 46.8838 210.875 46.8838C215.728 46.8838 216.111 43.6745 216.111 42.3854C216.111 39.7883 214.46 38.3556 213.418 37.8542C212.133 37.235 209.763 36.8801 207.638 37.8372Z" fill="#231F20"/>
<path fill-rule="evenodd" clip-rule="evenodd" d="M239.612 48.5832H226.675C226.432 48.5652 226.195 48.7068 226.195 48.9221C226.195 51.1823 226.237 53.5641 226.583 55.1164C227.033 57.1353 227.839 58.3396 228.577 58.8152C229.72 59.5529 230.231 59.4672 231.301 59.5559C235.043 59.5559 238.384 56.2998 239.086 53.4524C239.279 52.6678 239.72 52.7266 239.481 53.6129C238.995 55.4135 236.531 60.2927 229.064 60.2927C223.864 60.2927 216.476 58.3296 215.525 50.2691C215.478 49.8663 215.474 49.9062 215.474 49.2083C215.474 39.2843 223.377 37.2435 228.337 37.2435C235.964 37.2425 240.195 42.045 240.195 47.9481C240.195 48.4526 240.116 48.5832 239.612 48.5832ZM226.461 48.0837H230.226C230.425 48.0797 230.519 48.0408 230.515 47.8474C230.45 44.6989 230.458 41.9632 230.018 39.2116C229.738 37.4599 227.826 37.2465 227.311 38.7978C226.231 42.053 226.261 47.1326 226.233 47.66C226.22 47.9182 226.21 48.0837 226.461 48.0837Z" fill="#231F20"/>
</svg>
